<svg width="95" height="94" viewBox="0 0 95 94" fill="none" xmlns="http://www.w3.org/2000/svg">
<path fill-rule="evenodd" clip-rule="evenodd" d="M23.486 23.503L0 47.005L23.494 70.493L46.989 93.98L70.514 70.508L94.04 47.035L70.507 23.518L46.973 0L23.486 23.503ZM56.922 20.218L62.898 25.936L60.519 28.468C59.211 29.861 57.672 31 57.099 31C56.526 31 54.006 28.979 51.499 26.51L46.94 22.019L34.491 34.498L22.042 46.977L26.987 51.998L31.932 57.019L28.908 60.042L25.884 63.066L18.687 55.57C14.728 51.447 11.491 47.494 11.494 46.787C11.497 46.079 19.386 37.681 29.026 28.124L46.553 10.748L48.75 12.624C49.958 13.656 53.636 17.073 56.922 20.218ZM65.989 64.99C56.089 74.864 47.684 82.956 47.311 82.971C46.691 82.998 31.251 67.688 31.766 67.557C31.888 67.526 33.235 66.401 34.759 65.057L37.529 62.614L42.283 67.297L47.038 71.981L59.487 59.502L71.936 47.023L67.16 42.174L62.384 37.325L65.169 34.152L67.953 30.979L75.971 39.008L83.989 47.038L65.989 64.99ZM53.989 54L47.025 61.018L40.025 54.018L33.025 47.018L39.989 40L46.953 32.982L53.953 39.982L60.953 46.982L53.989 54Z" fill="#1E40AF"/>
</svg>
